<svg width="213" height="41" viewBox="0 0 213 41" fill="none" xmlns="http://www.w3.org/2000/svg">
<path d="M17.821 32.54C15.925 32.54 14.215 32.21 12.691 31.55C11.179 30.89 9.93103 29.948 8.94703 28.724C7.97503 27.488 7.35703 26.024 7.09303 24.332L11.593 23.648C11.977 25.184 12.763 26.372 13.951 27.212C15.151 28.052 16.531 28.472 18.091 28.472C19.015 28.472 19.885 28.328 20.701 28.04C21.517 27.752 22.177 27.332 22.681 26.78C23.197 26.228 23.455 25.55 23.455 24.746C23.455 24.386 23.395 24.056 23.275 23.756C23.155 23.444 22.975 23.168 22.735 22.928C22.507 22.688 22.207 22.472 21.835 22.28C21.475 22.076 21.055 21.902 20.575 21.758L13.879 19.778C13.303 19.61 12.679 19.388 12.007 19.112C11.347 18.824 10.717 18.434 10.117 17.942C9.52903 17.438 9.04303 16.802 8.65903 16.034C8.28703 15.254 8.10103 14.294 8.10103 13.154C8.10103 11.486 8.52103 10.088 9.36103 8.96C10.213 7.82 11.353 6.968 12.781 6.404C14.221 5.84 15.817 5.564 17.569 5.576C19.345 5.588 20.929 5.894 22.321 6.494C23.713 7.082 24.877 7.94 25.813 9.068C26.749 10.196 27.409 11.558 27.793 13.154L23.131 13.964C22.939 13.052 22.567 12.278 22.015 11.642C21.475 10.994 20.809 10.502 20.017 10.166C19.237 9.83 18.403 9.65 17.515 9.626C16.651 9.614 15.847 9.746 15.103 10.022C14.371 10.286 13.777 10.67 13.321 11.174C12.877 11.678 12.655 12.266 12.655 12.938C12.655 13.574 12.847 14.096 13.231 14.504C13.615 14.9 14.089 15.218 14.653 15.458C15.229 15.686 15.811 15.878 16.399 16.034L21.043 17.33C21.679 17.498 22.393 17.726 23.185 18.014C23.977 18.302 24.739 18.704 25.471 19.22C26.203 19.736 26.803 20.414 27.271 21.254C27.751 22.094 27.991 23.162 27.991 24.458C27.991 25.802 27.709 26.984 27.145 28.004C26.593 29.012 25.843 29.852 24.895 30.524C23.947 31.196 22.861 31.7 21.637 32.036C20.425 32.372 19.153 32.54 17.821 32.54ZM39.2252 32.54C37.2572 32.54 35.5292 32.114 34.0412 31.262C32.5532 30.41 31.3892 29.228 30.5492 27.716C29.7212 26.204 29.3072 24.464 29.3072 22.496C29.3072 20.372 29.7152 18.53 30.5312 16.97C31.3472 15.398 32.4812 14.18 33.9332 13.316C35.3852 12.452 37.0652 12.02 38.9732 12.02C40.9892 12.02 42.6992 12.494 44.1032 13.442C45.5192 14.378 46.5692 15.704 47.2532 17.42C47.9372 19.136 48.1952 21.158 48.0272 23.486H43.7252V21.902C43.7132 19.79 43.3412 18.248 42.6092 17.276C41.8772 16.304 40.7252 15.818 39.1532 15.818C37.3772 15.818 36.0572 16.37 35.1932 17.474C34.3292 18.566 33.8972 20.168 33.8972 22.28C33.8972 24.248 34.3292 25.772 35.1932 26.852C36.0572 27.932 37.3172 28.472 38.9732 28.472C40.0412 28.472 40.9592 28.238 41.7272 27.77C42.5072 27.29 43.1072 26.6 43.5272 25.7L47.8112 26.996C47.0672 28.748 45.9152 30.11 44.3552 31.082C42.8072 32.054 41.0972 32.54 39.2252 32.54ZM32.5292 23.486V20.21H45.9032V23.486H32.5292ZM50.5434 32V12.56H54.3774V17.294L53.9094 16.682C54.1494 16.034 54.4674 15.446 54.8634 14.918C55.2714 14.378 55.7574 13.934 56.3214 13.586C56.8014 13.262 57.3294 13.01 57.9054 12.83C58.4934 12.638 59.0934 12.524 59.7054 12.488C60.3174 12.44 60.9114 12.464 61.4874 12.56V16.61C60.9114 16.442 60.2454 16.388 59.4894 16.448C58.7454 16.508 58.0734 16.718 57.4734 17.078C56.8734 17.402 56.3814 17.816 55.9974 18.32C55.6254 18.824 55.3494 19.4 55.1694 20.048C54.9894 20.684 54.8994 21.374 54.8994 22.118V32H50.5434ZM68.6783 32L61.6223 12.56H65.9603L70.8563 26.654L75.7343 12.56H80.0903L73.0343 32H68.6783ZM82.1808 9.608V5.63H86.5188V9.608H82.1808ZM82.1808 32V12.56H86.5188V32H82.1808ZM98.8526 32.54C96.8486 32.54 95.1386 32.096 93.7226 31.208C92.3066 30.308 91.2206 29.084 90.4646 27.536C89.7206 25.988 89.3426 24.236 89.3306 22.28C89.3426 20.288 89.7326 18.524 90.5006 16.988C91.2806 15.44 92.3846 14.228 93.8126 13.352C95.2406 12.464 96.9386 12.02 98.9066 12.02C101.115 12.02 102.981 12.578 104.505 13.694C106.041 14.798 107.043 16.31 107.511 18.23L103.191 19.4C102.855 18.356 102.297 17.546 101.517 16.97C100.737 16.382 99.8486 16.088 98.8526 16.088C97.7246 16.088 96.7946 16.358 96.0626 16.898C95.3306 17.426 94.7906 18.158 94.4426 19.094C94.0946 20.03 93.9206 21.092 93.9206 22.28C93.9206 24.128 94.3346 25.622 95.1626 26.762C95.9906 27.902 97.2206 28.472 98.8526 28.472C100.005 28.472 100.911 28.208 101.571 27.68C102.243 27.152 102.747 26.39 103.083 25.394L107.511 26.384C106.911 28.364 105.861 29.888 104.361 30.956C102.861 32.012 101.025 32.54 98.8526 32.54ZM117.928 32.54C115.96 32.54 114.232 32.114 112.744 31.262C111.256 30.41 110.092 29.228 109.252 27.716C108.424 26.204 108.01 24.464 108.01 22.496C108.01 20.372 108.418 18.53 109.234 16.97C110.05 15.398 111.184 14.18 112.636 13.316C114.088 12.452 115.768 12.02 117.676 12.02C119.692 12.02 121.402 12.494 122.806 13.442C124.222 14.378 125.272 15.704 125.956 17.42C126.64 19.136 126.898 21.158 126.73 23.486H122.428V21.902C122.416 19.79 122.044 18.248 121.312 17.276C120.58 16.304 119.428 15.818 117.856 15.818C116.08 15.818 114.76 16.37 113.896 17.474C113.032 18.566 112.6 20.168 112.6 22.28C112.6 24.248 113.032 25.772 113.896 26.852C114.76 27.932 116.02 28.472 117.676 28.472C118.744 28.472 119.662 28.238 120.43 27.77C121.21 27.29 121.81 26.6 122.23 25.7L126.514 26.996C125.77 28.748 124.618 30.11 123.058 31.082C121.51 32.054 119.8 32.54 117.928 32.54ZM111.232 23.486V20.21H124.606V23.486H111.232Z" fill="#898989"/>
<path d="M138.841 32.54C136.945 32.54 135.235 32.21 133.711 31.55C132.199 30.89 130.951 29.948 129.967 28.724C128.995 27.488 128.377 26.024 128.113 24.332L132.613 23.648C132.997 25.184 133.783 26.372 134.971 27.212C136.171 28.052 137.551 28.472 139.111 28.472C140.035 28.472 140.905 28.328 141.721 28.04C142.537 27.752 143.197 27.332 143.701 26.78C144.217 26.228 144.475 25.55 144.475 24.746C144.475 24.386 144.415 24.056 144.295 23.756C144.175 23.444 143.995 23.168 143.755 22.928C143.527 22.688 143.227 22.472 142.855 22.28C142.495 22.076 142.075 21.902 141.595 21.758L134.899 19.778C134.323 19.61 133.699 19.388 133.027 19.112C132.367 18.824 131.737 18.434 131.137 17.942C130.549 17.438 130.063 16.802 129.679 16.034C129.307 15.254 129.121 14.294 129.121 13.154C129.121 11.486 129.541 10.088 130.381 8.96C131.233 7.82 132.373 6.968 133.801 6.404C135.241 5.84 136.837 5.564 138.589 5.576C140.365 5.588 141.949 5.894 143.341 6.494C144.733 7.082 145.897 7.94 146.833 9.068C147.769 10.196 148.429 11.558 148.813 13.154L144.151 13.964C143.959 13.052 143.587 12.278 143.035 11.642C142.495 10.994 141.829 10.502 141.037 10.166C140.257 9.83 139.423 9.65 138.535 9.626C137.671 9.614 136.867 9.746 136.123 10.022C135.391 10.286 134.797 10.67 134.341 11.174C133.897 11.678 133.675 12.266 133.675 12.938C133.675 13.574 133.867 14.096 134.251 14.504C134.635 14.9 135.109 15.218 135.673 15.458C136.249 15.686 136.831 15.878 137.419 16.034L142.063 17.33C142.699 17.498 143.413 17.726 144.205 18.014C144.997 18.302 145.759 18.704 146.491 19.22C147.223 19.736 147.823 20.414 148.291 21.254C148.771 22.094 149.011 23.162 149.011 24.458C149.011 25.802 148.729 26.984 148.165 28.004C147.613 29.012 146.863 29.852 145.915 30.524C144.967 31.196 143.881 31.7 142.657 32.036C141.445 32.372 140.173 32.54 138.841 32.54ZM164.853 32V22.64C164.853 22.028 164.811 21.35 164.727 20.606C164.643 19.862 164.445 19.148 164.133 18.464C163.833 17.768 163.377 17.198 162.765 16.754C162.165 16.31 161.349 16.088 160.317 16.088C159.765 16.088 159.219 16.178 158.679 16.358C158.139 16.538 157.647 16.85 157.203 17.294C156.771 17.726 156.423 18.326 156.159 19.094C155.895 19.85 155.763 20.822 155.763 22.01L153.189 20.912C153.189 19.256 153.507 17.756 154.143 16.412C154.791 15.068 155.739 14 156.987 13.208C158.235 12.404 159.771 12.002 161.595 12.002C163.035 12.002 164.223 12.242 165.159 12.722C166.095 13.202 166.839 13.814 167.391 14.558C167.943 15.302 168.351 16.094 168.615 16.934C168.879 17.774 169.047 18.572 169.119 19.328C169.203 20.072 169.245 20.678 169.245 21.146V32H164.853ZM151.371 32V6.08H155.241V19.724H155.763V32H151.371ZM181.028 32.54C179.084 32.54 177.386 32.102 175.934 31.226C174.482 30.35 173.354 29.144 172.55 27.608C171.758 26.06 171.362 24.284 171.362 22.28C171.362 20.24 171.77 18.452 172.586 16.916C173.402 15.38 174.536 14.18 175.988 13.316C177.44 12.452 179.12 12.02 181.028 12.02C182.984 12.02 184.688 12.458 186.14 13.334C187.592 14.21 188.72 15.422 189.524 16.97C190.328 18.506 190.73 20.276 190.73 22.28C190.73 24.296 190.322 26.078 189.506 27.626C188.702 29.162 187.574 30.368 186.122 31.244C184.67 32.108 182.972 32.54 181.028 32.54ZM181.028 28.472C182.756 28.472 184.04 27.896 184.88 26.744C185.72 25.592 186.14 24.104 186.14 22.28C186.14 20.396 185.714 18.896 184.862 17.78C184.01 16.652 182.732 16.088 181.028 16.088C179.864 16.088 178.904 16.352 178.148 16.88C177.404 17.396 176.852 18.122 176.492 19.058C176.132 19.982 175.952 21.056 175.952 22.28C175.952 24.164 176.378 25.67 177.23 26.798C178.094 27.914 179.36 28.472 181.028 28.472ZM202.538 32.54C200.642 32.54 199.052 32.09 197.768 31.19C196.484 30.29 195.518 29.066 194.87 27.518C194.222 25.958 193.898 24.212 193.898 22.28C193.898 20.324 194.222 18.572 194.87 17.024C195.518 15.476 196.466 14.258 197.714 13.37C198.974 12.47 200.528 12.02 202.376 12.02C204.212 12.02 205.802 12.47 207.146 13.37C208.502 14.258 209.552 15.476 210.296 17.024C211.04 18.56 211.412 20.312 211.412 22.28C211.412 24.224 211.046 25.97 210.314 27.518C209.582 29.066 208.55 30.29 207.218 31.19C205.886 32.09 204.326 32.54 202.538 32.54ZM193.16 40.64V12.56H196.994V26.204H197.534V40.64H193.16ZM201.872 28.652C203 28.652 203.93 28.37 204.662 27.806C205.394 27.242 205.934 26.48 206.282 25.52C206.642 24.548 206.822 23.468 206.822 22.28C206.822 21.104 206.642 20.036 206.282 19.076C205.922 18.104 205.364 17.336 204.608 16.772C203.852 16.196 202.892 15.908 201.728 15.908C200.624 15.908 199.724 16.178 199.028 16.718C198.332 17.246 197.816 17.99 197.48 18.95C197.156 19.898 196.994 21.008 196.994 22.28C196.994 23.54 197.156 24.65 197.48 25.61C197.816 26.57 198.338 27.32 199.046 27.86C199.766 28.388 200.708 28.652 201.872 28.652Z" fill="#1677FF"/>
</svg>
