<svg width="205" height="36" viewBox="0 0 205 36" fill="none" xmlns="http://www.w3.org/2000/svg">
<path d="M10.821 27.54C8.92503 27.54 7.21503 27.21 5.69103 26.55C4.17903 25.89 2.93103 24.948 1.94703 23.724C0.975031 22.488 0.357031 21.024 0.0930314 19.332L4.59303 18.648C4.97703 20.184 5.76303 21.372 6.95103 22.212C8.15103 23.052 9.53103 23.472 11.091 23.472C12.015 23.472 12.885 23.328 13.701 23.04C14.517 22.752 15.177 22.332 15.681 21.78C16.197 21.228 16.455 20.55 16.455 19.746C16.455 19.386 16.395 19.056 16.275 18.756C16.155 18.444 15.975 18.168 15.735 17.928C15.507 17.688 15.207 17.472 14.835 17.28C14.475 17.076 14.055 16.902 13.575 16.758L6.87903 14.778C6.30303 14.61 5.67903 14.388 5.00703 14.112C4.34703 13.824 3.71703 13.434 3.11703 12.942C2.52903 12.438 2.04303 11.802 1.65903 11.034C1.28703 10.254 1.10103 9.294 1.10103 8.154C1.10103 6.486 1.52103 5.088 2.36103 3.96C3.21303 2.82 4.35303 1.968 5.78103 1.404C7.22103 0.839998 8.81703 0.563998 10.569 0.575999C12.345 0.587998 13.929 0.893998 15.321 1.494C16.713 2.082 17.877 2.94 18.813 4.068C19.749 5.196 20.409 6.558 20.793 8.154L16.131 8.964C15.939 8.052 15.567 7.278 15.015 6.642C14.475 5.994 13.809 5.502 13.017 5.166C12.237 4.83 11.403 4.65 10.515 4.626C9.65103 4.614 8.84703 4.746 8.10303 5.022C7.37103 5.286 6.77703 5.67 6.32103 6.174C5.87703 6.678 5.65503 7.266 5.65503 7.938C5.65503 8.574 5.84703 9.096 6.23103 9.504C6.61503 9.9 7.08903 10.218 7.65303 10.458C8.22903 10.686 8.81103 10.878 9.39903 11.034L14.043 12.33C14.679 12.498 15.393 12.726 16.185 13.014C16.977 13.302 17.739 13.704 18.471 14.22C19.203 14.736 19.803 15.414 20.271 16.254C20.751 17.094 20.991 18.162 20.991 19.458C20.991 20.802 20.709 21.984 20.145 23.004C19.593 24.012 18.843 24.852 17.895 25.524C16.947 26.196 15.861 26.7 14.637 27.036C13.425 27.372 12.153 27.54 10.821 27.54ZM32.2252 27.54C30.2572 27.54 28.5292 27.114 27.0412 26.262C25.5532 25.41 24.3892 24.228 23.5492 22.716C22.7212 21.204 22.3072 19.464 22.3072 17.496C22.3072 15.372 22.7152 13.53 23.5312 11.97C24.3472 10.398 25.4812 9.18 26.9332 8.316C28.3852 7.452 30.0652 7.02 31.9732 7.02C33.9892 7.02 35.6992 7.494 37.1032 8.442C38.5192 9.378 39.5692 10.704 40.2532 12.42C40.9372 14.136 41.1952 16.158 41.0272 18.486H36.7252V16.902C36.7132 14.79 36.3412 13.248 35.6092 12.276C34.8772 11.304 33.7252 10.818 32.1532 10.818C30.3772 10.818 29.0572 11.37 28.1932 12.474C27.3292 13.566 26.8972 15.168 26.8972 17.28C26.8972 19.248 27.3292 20.772 28.1932 21.852C29.0572 22.932 30.3172 23.472 31.9732 23.472C33.0412 23.472 33.9592 23.238 34.7272 22.77C35.5072 22.29 36.1072 21.6 36.5272 20.7L40.8112 21.996C40.0672 23.748 38.9152 25.11 37.3552 26.082C35.8072 27.054 34.0972 27.54 32.2252 27.54ZM25.5292 18.486V15.21H38.9032V18.486H25.5292ZM43.5434 27V7.56H47.3774V12.294L46.9094 11.682C47.1494 11.034 47.4674 10.446 47.8634 9.918C48.2714 9.378 48.7574 8.934 49.3214 8.586C49.8014 8.262 50.3294 8.01 50.9054 7.83C51.4934 7.638 52.0934 7.524 52.7054 7.488C53.3174 7.44 53.9114 7.464 54.4874 7.56V11.61C53.9114 11.442 53.2454 11.388 52.4894 11.448C51.7454 11.508 51.0734 11.718 50.4734 12.078C49.8734 12.402 49.3814 12.816 48.9974 13.32C48.6254 13.824 48.3494 14.4 48.1694 15.048C47.9894 15.684 47.8994 16.374 47.8994 17.118V27H43.5434ZM61.6783 27L54.6223 7.56H58.9603L63.8563 21.654L68.7343 7.56H73.0903L66.0343 27H61.6783ZM75.1808 4.608V0.629999H79.5188V4.608H75.1808ZM75.1808 27V7.56H79.5188V27H75.1808ZM91.8526 27.54C89.8486 27.54 88.1386 27.096 86.7226 26.208C85.3066 25.308 84.2206 24.084 83.4646 22.536C82.7206 20.988 82.3426 19.236 82.3306 17.28C82.3426 15.288 82.7326 13.524 83.5006 11.988C84.2806 10.44 85.3846 9.228 86.8126 8.352C88.2406 7.464 89.9386 7.02 91.9066 7.02C94.1146 7.02 95.9806 7.578 97.5046 8.694C99.0406 9.798 100.043 11.31 100.511 13.23L96.1906 14.4C95.8546 13.356 95.2966 12.546 94.5166 11.97C93.7366 11.382 92.8486 11.088 91.8526 11.088C90.7246 11.088 89.7946 11.358 89.0626 11.898C88.3306 12.426 87.7906 13.158 87.4426 14.094C87.0946 15.03 86.9206 16.092 86.9206 17.28C86.9206 19.128 87.3346 20.622 88.1626 21.762C88.9906 22.902 90.2206 23.472 91.8526 23.472C93.0046 23.472 93.9106 23.208 94.5706 22.68C95.2426 22.152 95.7466 21.39 96.0826 20.394L100.511 21.384C99.9106 23.364 98.8606 24.888 97.3606 25.956C95.8606 27.012 94.0246 27.54 91.8526 27.54ZM110.928 27.54C108.96 27.54 107.232 27.114 105.744 26.262C104.256 25.41 103.092 24.228 102.252 22.716C101.424 21.204 101.01 19.464 101.01 17.496C101.01 15.372 101.418 13.53 102.234 11.97C103.05 10.398 104.184 9.18 105.636 8.316C107.088 7.452 108.768 7.02 110.676 7.02C112.692 7.02 114.402 7.494 115.806 8.442C117.222 9.378 118.272 10.704 118.956 12.42C119.64 14.136 119.898 16.158 119.73 18.486H115.428V16.902C115.416 14.79 115.044 13.248 114.312 12.276C113.58 11.304 112.428 10.818 110.856 10.818C109.08 10.818 107.76 11.37 106.896 12.474C106.032 13.566 105.6 15.168 105.6 17.28C105.6 19.248 106.032 20.772 106.896 21.852C107.76 22.932 109.02 23.472 110.676 23.472C111.744 23.472 112.662 23.238 113.43 22.77C114.21 22.29 114.81 21.6 115.23 20.7L119.514 21.996C118.77 23.748 117.618 25.11 116.058 26.082C114.51 27.054 112.8 27.54 110.928 27.54ZM104.232 18.486V15.21H117.606V18.486H104.232Z" fill="white"/>
<path d="M131.841 27.54C129.945 27.54 128.235 27.21 126.711 26.55C125.199 25.89 123.951 24.948 122.967 23.724C121.995 22.488 121.377 21.024 121.113 19.332L125.613 18.648C125.997 20.184 126.783 21.372 127.971 22.212C129.171 23.052 130.551 23.472 132.111 23.472C133.035 23.472 133.905 23.328 134.721 23.04C135.537 22.752 136.197 22.332 136.701 21.78C137.217 21.228 137.475 20.55 137.475 19.746C137.475 19.386 137.415 19.056 137.295 18.756C137.175 18.444 136.995 18.168 136.755 17.928C136.527 17.688 136.227 17.472 135.855 17.28C135.495 17.076 135.075 16.902 134.595 16.758L127.899 14.778C127.323 14.61 126.699 14.388 126.027 14.112C125.367 13.824 124.737 13.434 124.137 12.942C123.549 12.438 123.063 11.802 122.679 11.034C122.307 10.254 122.121 9.294 122.121 8.154C122.121 6.486 122.541 5.088 123.381 3.96C124.233 2.82 125.373 1.968 126.801 1.404C128.241 0.839998 129.837 0.563998 131.589 0.575999C133.365 0.587998 134.949 0.893998 136.341 1.494C137.733 2.082 138.897 2.94 139.833 4.068C140.769 5.196 141.429 6.558 141.813 8.154L137.151 8.964C136.959 8.052 136.587 7.278 136.035 6.642C135.495 5.994 134.829 5.502 134.037 5.166C133.257 4.83 132.423 4.65 131.535 4.626C130.671 4.614 129.867 4.746 129.123 5.022C128.391 5.286 127.797 5.67 127.341 6.174C126.897 6.678 126.675 7.266 126.675 7.938C126.675 8.574 126.867 9.096 127.251 9.504C127.635 9.9 128.109 10.218 128.673 10.458C129.249 10.686 129.831 10.878 130.419 11.034L135.063 12.33C135.699 12.498 136.413 12.726 137.205 13.014C137.997 13.302 138.759 13.704 139.491 14.22C140.223 14.736 140.823 15.414 141.291 16.254C141.771 17.094 142.011 18.162 142.011 19.458C142.011 20.802 141.729 21.984 141.165 23.004C140.613 24.012 139.863 24.852 138.915 25.524C137.967 26.196 136.881 26.7 135.657 27.036C134.445 27.372 133.173 27.54 131.841 27.54ZM157.853 27V17.64C157.853 17.028 157.811 16.35 157.727 15.606C157.643 14.862 157.445 14.148 157.133 13.464C156.833 12.768 156.377 12.198 155.765 11.754C155.165 11.31 154.349 11.088 153.317 11.088C152.765 11.088 152.219 11.178 151.679 11.358C151.139 11.538 150.647 11.85 150.203 12.294C149.771 12.726 149.423 13.326 149.159 14.094C148.895 14.85 148.763 15.822 148.763 17.01L146.189 15.912C146.189 14.256 146.507 12.756 147.143 11.412C147.791 10.068 148.739 9 149.987 8.208C151.235 7.404 152.771 7.002 154.595 7.002C156.035 7.002 157.223 7.242 158.159 7.722C159.095 8.202 159.839 8.814 160.391 9.558C160.943 10.302 161.351 11.094 161.615 11.934C161.879 12.774 162.047 13.572 162.119 14.328C162.203 15.072 162.245 15.678 162.245 16.146V27H157.853ZM144.371 27V1.08H148.241V14.724H148.763V27H144.371ZM174.028 27.54C172.084 27.54 170.386 27.102 168.934 26.226C167.482 25.35 166.354 24.144 165.55 22.608C164.758 21.06 164.362 19.284 164.362 17.28C164.362 15.24 164.77 13.452 165.586 11.916C166.402 10.38 167.536 9.18 168.988 8.316C170.44 7.452 172.12 7.02 174.028 7.02C175.984 7.02 177.688 7.458 179.14 8.334C180.592 9.21 181.72 10.422 182.524 11.97C183.328 13.506 183.73 15.276 183.73 17.28C183.73 19.296 183.322 21.078 182.506 22.626C181.702 24.162 180.574 25.368 179.122 26.244C177.67 27.108 175.972 27.54 174.028 27.54ZM174.028 23.472C175.756 23.472 177.04 22.896 177.88 21.744C178.72 20.592 179.14 19.104 179.14 17.28C179.14 15.396 178.714 13.896 177.862 12.78C177.01 11.652 175.732 11.088 174.028 11.088C172.864 11.088 171.904 11.352 171.148 11.88C170.404 12.396 169.852 13.122 169.492 14.058C169.132 14.982 168.952 16.056 168.952 17.28C168.952 19.164 169.378 20.67 170.23 21.798C171.094 22.914 172.36 23.472 174.028 23.472ZM195.538 27.54C193.642 27.54 192.052 27.09 190.768 26.19C189.484 25.29 188.518 24.066 187.87 22.518C187.222 20.958 186.898 19.212 186.898 17.28C186.898 15.324 187.222 13.572 187.87 12.024C188.518 10.476 189.466 9.258 190.714 8.37C191.974 7.47 193.528 7.02 195.376 7.02C197.212 7.02 198.802 7.47 200.146 8.37C201.502 9.258 202.552 10.476 203.296 12.024C204.04 13.56 204.412 15.312 204.412 17.28C204.412 19.224 204.046 20.97 203.314 22.518C202.582 24.066 201.55 25.29 200.218 26.19C198.886 27.09 197.326 27.54 195.538 27.54ZM186.16 35.64V7.56H189.994V21.204H190.534V35.64H186.16ZM194.872 23.652C196 23.652 196.93 23.37 197.662 22.806C198.394 22.242 198.934 21.48 199.282 20.52C199.642 19.548 199.822 18.468 199.822 17.28C199.822 16.104 199.642 15.036 199.282 14.076C198.922 13.104 198.364 12.336 197.608 11.772C196.852 11.196 195.892 10.908 194.728 10.908C193.624 10.908 192.724 11.178 192.028 11.718C191.332 12.246 190.816 12.99 190.48 13.95C190.156 14.898 189.994 16.008 189.994 17.28C189.994 18.54 190.156 19.65 190.48 20.61C190.816 21.57 191.338 22.32 192.046 22.86C192.766 23.388 193.708 23.652 194.872 23.652Z" fill="#1677FF"/>
</svg>
