<svg width="43" height="44" viewBox="0 0 43 44" fill="none" xmlns="http://www.w3.org/2000/svg">
<path d="M1.19237 21.1909C0.971437 20.2177 0.832398 19.2398 0.939038 18.2475C1.04092 17.1734 1.23421 16.2583 1.68271 15.4927C1.46178 14.5195 1.48652 13.532 1.67505 12.535C1.94548 11.5333 2.30256 10.6086 2.83771 9.92014C2.70437 7.62714 3.17285 5.79216 4.40695 4.40568C5.64104 3.0192 7.48648 2.25453 9.86137 2.11642L13.219 1.92117C14.8568 1.82593 16.6728 1.96684 18.6668 2.3439C19.8276 2.52291 21.494 2.91903 23.5023 3.54177L26.0067 4.21783C26.8351 4.334 27.4179 4.46445 27.9093 4.43588L27.8664 3.69884C27.8236 2.9618 28.113 2.28761 28.5758 1.76768C29.0386 1.24775 29.6795 0.963974 30.3346 0.925877L38.1963 0.468707C38.9334 0.425847 39.6028 0.633428 40.1227 1.09621C40.6426 1.559 40.9264 2.19985 40.9693 2.93689L42.1884 23.9015C42.2265 24.5566 42.0189 25.226 41.5561 25.746C41.0933 26.2659 40.4573 26.6316 39.7202 26.6744L31.8585 27.1316C30.9577 27.184 30.1968 26.8174 29.6626 26.1089C29.4169 26.1232 29.176 26.2194 29.017 26.3108C28.5399 26.5851 28 27.1916 27.2335 28.1401C26.7707 28.66 26.086 29.6037 25.1795 30.9711C24.1282 32.6757 23.2893 33.7927 22.7447 34.3173C22.4361 34.664 22.219 35.1696 22.0162 35.9209C21.8762 36.3399 21.7505 37.0046 21.6439 37.9968C21.1983 41.6382 19.9975 43.5979 18.114 43.7075C15.821 43.8408 14.0632 43.2857 12.8405 42.0421C11.6997 40.7937 11.0169 38.9435 10.874 36.4867C10.8121 35.4221 10.914 34.348 11.1844 33.3462C11.392 32.6768 11.6767 31.9207 12.1109 30.9094L12.2604 30.6542L6.52791 30.9875C4.89005 31.0828 3.45977 30.5086 2.2466 29.4288C1.02867 28.267 0.292567 26.913 0.197323 25.2751C0.102079 23.6372 0.435349 22.3031 1.19237 21.1909ZM38.3487 3.08928L30.487 3.54645L31.7061 24.511L39.5678 24.0539L38.3487 3.08928ZM4.5976 21.8146C3.95198 22.0165 3.47967 22.3726 3.1902 23.0468C2.89596 23.6391 2.77504 24.3857 2.82266 25.2046C2.87028 26.0235 3.24547 26.8234 3.93871 27.4405C4.63195 28.0575 5.47469 28.4194 6.37552 28.367L15.5475 27.8336C15.5904 28.5706 15.5513 29.3124 15.2666 30.0685C15.1267 30.4875 14.9191 31.1569 14.5572 31.9997C14.1954 32.8424 13.9059 33.5166 13.7707 34.0175C13.5679 34.7688 13.447 35.5154 13.4946 36.3343C13.5803 37.8084 13.8927 38.9406 14.2583 39.5767C14.9801 40.6851 16.16 41.1917 17.9616 41.0869C18.2701 40.7403 18.5691 40.2299 18.6948 39.5652C18.8348 39.1462 18.9605 38.4816 19.0767 37.6531C19.2509 36.4104 19.3623 35.5001 19.4975 34.9992C19.8498 33.9927 20.2936 33.1452 20.8335 32.5386C21.3734 31.932 22.2123 30.815 23.2683 29.1924C24.4786 27.3964 25.3947 26.1928 26.0117 25.4995C27.0915 24.2864 28.1276 23.7331 29.0284 23.6807L28.0617 7.05645C27.4065 7.09455 26.5781 6.97838 25.5811 6.78985C24.9983 6.6594 23.9965 6.38897 22.5758 5.97857C20.736 5.4282 19.2382 5.10445 18.2411 4.91592C16.4928 4.52457 14.8454 4.45603 13.3714 4.54175L10.0138 4.737C8.3759 4.83224 7.08943 5.3179 6.32288 6.26634C5.47921 7.30144 5.23735 8.79456 5.68398 10.8228C4.96599 11.1933 4.5175 11.9589 4.25183 13.0425C3.98617 14.1262 4.2071 15.0994 4.75084 15.9716C4.19188 16.2506 3.81575 16.8477 3.61769 17.6809C3.50153 18.5094 3.46726 19.3331 3.67867 20.1425C3.89007 20.9519 4.16909 21.5108 4.5976 21.8146ZM32.681 7.36302C32.7096 7.85437 32.9838 8.33144 33.3352 8.72186C33.7637 9.02562 34.2694 9.24273 34.7607 9.21415C35.334 9.18082 35.811 8.90657 36.1196 8.55995C36.5052 8.12667 36.6404 7.62579 36.6119 7.13443C36.5785 6.56118 36.3862 6.07935 35.9577 5.77559C35.6063 5.38517 35.1054 5.24996 34.5321 5.28329C34.0408 5.31187 33.5589 5.50423 33.1733 5.9375C32.8648 6.28412 32.6477 6.78977 32.681 7.36302Z" fill="#606770"/>
</svg>
