<svg width="43" height="43" viewBox="0 0 43 43" fill="none" xmlns="http://www.w3.org/2000/svg">
<path d="M40.8408 23.9609C41.0049 24.9453 41.0869 25.9297 40.9229 26.9141C40.7588 27.9805 40.5127 28.8828 40.0205 29.6211C40.1846 30.6055 40.1025 31.5898 39.8564 32.5742C39.5283 33.5586 39.1182 34.4609 38.5439 35.1172C38.5439 37.4141 37.9697 39.2188 36.6572 40.5312C35.3447 41.8438 33.458 42.5 31.0791 42.5H27.7158C26.0752 42.5 24.2705 42.2539 22.3018 41.7617C21.1533 41.5156 19.5127 41.0234 17.5439 40.2852L15.083 39.4648C14.2627 39.3008 13.6885 39.1367 13.1963 39.1367V39.875C13.1963 40.6133 12.8682 41.2695 12.376 41.7617C11.8838 42.2539 11.2275 42.5 10.5713 42.5H2.69629C1.95801 42.5 1.30176 42.2539 0.80957 41.7617C0.317383 41.2695 0.0712891 40.6133 0.0712891 39.875V18.875C0.0712891 18.2188 0.317383 17.5625 0.80957 17.0703C1.30176 16.5781 1.95801 16.25 2.69629 16.25H10.5713C11.4736 16.25 12.2119 16.6602 12.7041 17.3984C12.9502 17.3984 13.1963 17.3164 13.3604 17.2344C13.8525 16.9883 14.4268 16.4141 15.2471 15.5117C15.7393 15.0195 16.4775 14.1172 17.4619 12.8047C18.6104 11.1641 19.5127 10.0977 20.0869 9.60547C20.415 9.27734 20.6611 8.78516 20.9072 8.04688C21.0713 7.63672 21.2354 6.98047 21.3994 5.99609C22.0557 2.38672 23.3682 0.5 25.2549 0.5C27.5518 0.5 29.2744 1.15625 30.4229 2.46875C31.4893 3.78125 32.0635 5.66797 32.0635 8.12891C32.0635 9.19531 31.8994 10.2617 31.5713 11.2461C31.3252 11.9023 30.9971 12.6406 30.5049 13.625L30.3408 13.8711H36.083C37.7236 13.8711 39.1182 14.5273 40.2666 15.6758C41.415 16.9062 42.0713 18.3008 42.0713 19.9414C42.0713 21.582 41.6611 22.8945 40.8408 23.9609ZM2.69629 39.875H10.5713V18.875H2.69629V39.875ZM37.4775 23.1406C38.1338 22.9766 38.626 22.6484 38.9541 21.9922C39.2822 21.418 39.4463 20.6797 39.4463 19.8594C39.4463 19.0391 39.1182 18.2188 38.4619 17.5625C37.8057 16.9062 36.9854 16.4961 36.083 16.4961H26.8955C26.8955 15.7578 26.9775 15.0195 27.3057 14.2812C27.4697 13.8711 27.7158 13.2148 28.126 12.3945C28.5361 11.5742 28.8643 10.918 29.0283 10.4258C29.2744 9.6875 29.4385 8.94922 29.4385 8.12891C29.4385 6.65234 29.1924 5.50391 28.8643 4.84766C28.208 3.69922 27.0596 3.125 25.2549 3.125C24.9268 3.45312 24.5986 3.94531 24.4346 4.60156C24.2705 5.01172 24.1064 5.66797 23.9424 6.48828C23.6963 7.71875 23.5322 8.62109 23.3682 9.11328C22.958 10.0977 22.4658 10.918 21.8916 11.4922C21.3174 12.0664 20.415 13.1328 19.2666 14.6914C17.9541 16.4141 16.9697 17.5625 16.3135 18.2188C15.165 19.3672 14.0986 19.8594 13.1963 19.8594V36.5117C13.8525 36.5117 14.6729 36.6758 15.6572 36.9219C16.2314 37.0859 17.2158 37.4141 18.6104 37.9062C20.415 38.5625 21.8916 38.9727 22.876 39.2188C24.5986 39.7109 26.2393 39.875 27.7158 39.875H31.0791C32.7197 39.875 34.0322 39.4648 34.8525 38.5625C35.7549 37.5781 36.083 36.1016 35.7549 34.0508C36.4932 33.7227 36.9854 32.9844 37.3135 31.918C37.6416 30.8516 37.4775 29.8672 36.9854 28.9648C37.5596 28.7188 37.9697 28.1445 38.2158 27.3242C38.3799 26.5039 38.4619 25.6836 38.2979 24.8633C38.1338 24.043 37.8877 23.4688 37.4775 23.1406ZM8.60254 35.9375C8.60254 35.4453 8.35645 34.9531 8.02832 34.543C7.61816 34.2148 7.12598 33.9688 6.63379 33.9688C6.05957 33.9688 5.56738 34.2148 5.23926 34.543C4.8291 34.9531 4.66504 35.4453 4.66504 35.9375C4.66504 36.5117 4.8291 37.0039 5.23926 37.332C5.56738 37.7422 6.05957 37.9062 6.63379 37.9062C7.12598 37.9062 7.61816 37.7422 8.02832 37.332C8.35645 37.0039 8.60254 36.5117 8.60254 35.9375Z" fill="#606770"/>
</svg>
